#!OML:ASF E:\VariousWalksJay\Project 1\Capture day 1\Session 1\Actor2.ASF
:FULLY-SPECIFIED
:DEGREES
814
root -10.8831 14.2183 35.6059 16.8909 -42.4134 -4.14791
lowerback 35.2834 -2.83205 6.13877
upperback 16.9397 -2.7596 -2.90903
thorax 0.501338 -1.18835 -5.43594
lowerneck 3.80272 0.810058 6.66539
upperneck -22.4843 1.47405 -1.01777
head -7.47375 0.122888 -1.55364
rclavicle -2.14687e-014 -5.24792e-014
rhumerus -16.8734 29.4166 -81.2369
rradius 105.581
rwrist 4.22861
rhand -35.5479 -5.7014
rfingers 7.12502
rthumb -8.67355 -35.5032
lclavicle -2.14687e-014 -5.24792e-014
lhumerus 56.5485 -15.8151 38.3993
lradius 85.3097
lwrist 49.2438
lhand -32.5084 10.9646
lfingers 7.12502
lthumb -5.73958 40.8669
rfemur -41.2717 7.6899 24.2374
rtibia 82.9564
rfoot -39.888 -24.7126
rtoes -31.6171
lfemur -60.5592 2.91226 -11.5625
ltibia 19.5814
lfoot -1.04069 5.63139
ltoes -20.4561
815
root -10.9604 14.3052 35.7769 17.2262 -42.2397 -4.1455
lowerback 34.7208 -2.96946 6.15408
upperback 16.7927 -2.9331 -2.99436
thorax 0.500468 -1.265 -5.49475
lowerneck 3.62524 0.897591 6.46336
upperneck -22.1245 1.62656 -0.687135
head -7.32317 0.196092 -1.41784
rclavicle 2.62396e-014 -2.90226e-014
rhumerus -18.4976 29.0387 -82.3609
rradius 104.379
rwrist 4.70011
rhand -36.081 -4.8023
rfingers 7.12502
rthumb -9.18798 -34.5821
lclavicle 2.62396e-014 -2.90226e-014
lhumerus 55.6112 -17.235 38.5169
lradius 85.7617
lwrist 48.574
lhand -32.5522 10.4869
lfingers 7.12502
lthumb -5.78192 40.388
rfemur -40.4015 7.66513 23.9438
rtibia 81.8898
rfoot -39.3898 -24.3963
rtoes -31.9271
lfemur -60.5098 3.30867 -12.3613
ltibia 19.8502
lfoot -0.462795 5.37283
ltoes -20.3696
816
root -11.0391 14.3932 35.9502 17.5611 -42.0684 -4.19277
lowerback 34.1911 -3.11227 6.15801
upperback 16.6334 -3.11464 -3.05833
thorax 0.478456 -1.34901 -5.52211
lowerneck 3.50866 1.00182 6.2119
upperneck -21.7716 1.79948 -0.366463
head -7.18632 0.284854 -1.27952
rclavicle -2.06736e-014 0
rhumerus -20.1185 28.6565 -83.4599
rradius 103.112
rwrist 5.09797
rhand -36.589 -3.96943
rfingers 7.12502
rthumb -9.67816 -33.7271
lclavicle -2.06736e-014 0
lhumerus 54.5815 -18.6851 38.6926
lradius 86.1779
lwrist 47.8789
lhand -32.5543 9.98903
lfingers 7.12502
lthumb -5.78393 39.8901
rfemur -39.4768 7.64278 23.7006
rtibia 80.7756
rfoot -38.8454 -24.0594
rtoes -32.1651
lfemur -60.4486 3.73184 -13.1333
ltibia 20.2732
lfoot -0.0183642 5.25245
ltoes -20.5033
817
root -11.1186 14.4829 36.1258 17.8912 -41.8991 -4.28691
lowerback 33.7087 -3.2565 6.13393
upperback 16.4532 -3.30172 -3.08196
thorax 0.423241 -1.44145 -5.48902
lowerneck 3.42511 1.12429 5.90031
upperneck -21.3929 1.98808 -0.0718485
head -7.04758 0.389872 -1.14126
rclavicle 1.19271e-014 3.29983e-014
rhumerus -21.7323 28.296 -84.4996
rradius 101.771
rwrist 5.47575
rhand -37.0903 -3.20446
rfingers 7.12502
rthumb -10.1618 -32.9391
lclavicle 1.19271e-014 3.29983e-014
lhumerus 53.4326 -20.1629 38.9743
lradius 86.5553
lwrist 47.163
lhand -32.4669 9.5257
lfingers 7.12502
lthumb -5.69957 39.429
rfemur -38.5009 7.60221 23.5094
rtibia 79.6162
rfoot -38.2375 -23.7147
rtoes -32.3615
lfemur -60.3538 4.16589 -13.8617
ltibia 20.7745
lfoot 0.35748 5.20156
ltoes -20.8518
818
root -11.1984 14.5743 36.3037 18.1974 -41.7459 -4.3979
lowerback 33.2505 -3.38937 6.07754
upperback 16.2671 -3.48234 -3.07421
thorax 0.359978 -1.535 -5.40769
lowerneck 3.36294 1.25396 5.54904
upperneck -20.9954 2.17727 0.192329
head -6.90779 0.501789 -1.0067
rclavicle 9.62118e-014 -3.18055e-015
rhumerus -23.3199 27.9324 -85.4672
rradius 100.351
rwrist 5.8898
rhand -37.6098 -2.49793
rfingers 7.12502
rthumb -10.6629 -32.2074
lclavicle 9.62118e-014 -3.18055e-015
lhumerus 52.1969 -21.6733 39.3649
lradius 86.896
lwrist 46.4369
lhand -32.3573 9.02889
lfingers 7.12502
lthumb -5.59376 38.9351
rfemur -37.4837 7.53797 23.3405
rtibia 78.4211
rfoot -37.559 -23.3604
rtoes -32.4988
lfemur -60.2085 4.59172 -14.546
ltibia 21.283
lfoot 0.70071 5.15896
ltoes -21.4167
